<svg xmlns="http://www.w3.org/2000/svg" viewBox="0 0 60 100" fill="none">
  <!-- String -->
  <line x1="30" y1="0" x2="30" y2="10" stroke="currentColor" stroke-width="1.5" stroke-linecap="round"/>
  <!-- Top cap -->
  <path d="M18 10 Q30 6 42 10 L40 18 Q30 14 20 18 Z" fill="currentColor" opacity="0.9"/>
  <!-- Main body -->
  <path d="M20 18 Q10 38 12 58 Q30 66 48 58 Q50 38 40 18 Q30 14 20 18Z" fill="currentColor" opacity="0.15"/>
  <!-- Ribs -->
  <path d="M21 20 Q30 16 39 20" stroke="currentColor" stroke-width="1" fill="none" opacity="0.6"/>
  <path d="M14 35 Q30 28 46 35" stroke="currentColor" stroke-width="1" fill="none" opacity="0.6"/>
  <path d="M13 50 Q30 44 47 50" stroke="currentColor" stroke-width="1" fill="none" opacity="0.6"/>
  <!-- Glass panels -->
  <path d="M22 22 Q30 18 38 22 L40 38 Q30 32 20 38 Z" fill="currentColor" opacity="0.1"/>
  <path d="M15 38 Q30 32 45 38 L46 54 Q30 48 14 54 Z" fill="currentColor" opacity="0.1"/>
  <!-- Bottom cap -->
  <path d="M14 58 Q30 64 46 58 L44 66 Q30 70 16 66 Z" fill="currentColor" opacity="0.9"/>
  <!-- Tassel -->
  <line x1="24" y1="66" x2="22" y2="78" stroke="currentColor" stroke-width="1" stroke-linecap="round" opacity="0.7"/>
  <line x1="30" y1="66" x2="30" y2="80" stroke="currentColor" stroke-width="1" stroke-linecap="round" opacity="0.7"/>
  <line x1="36" y1="66" x2="38" y2="78" stroke="currentColor" stroke-width="1" stroke-linecap="round" opacity="0.7"/>
  <!-- Light glow -->
  <ellipse cx="30" cy="40" rx="8" ry="12" fill="currentColor" opacity="0.08"/>
</svg>
