<svg xmlns="http://www.w3.org/2000/svg" viewBox="0 0 180 56" fill="none" role="img" aria-label="PayPal">
  <!-- PayPal dual-P icon -->
  <!-- Shadow P (light blue) -->
  <path d="M30 6h-13C15.3 6 14 7.3 14 9v.5C14 7.3 15.3 6 17 6h13c6 0 9.8 4.2 9 9.8-.1.7-.3 1.4-.6 2 .6-1 1-2.1 1.2-3.3C41 9 37 6 31 6h-1z" fill="#009CDE"/>
  <path d="M28.5 6h-13C14 6 12.5 7.3 12.5 9c0 0 .2-.5.5-.5h14c6.5 0 10.5 4.8 9.5 11-.3 2-1.2 3.7-2.5 5 2.5-1.5 4.2-4 4.8-7C40 11 36 6 28.5 6z" fill="#003087"/>
  <!-- Main P shape dark blue -->
  <path d="M25 11H13C11.9 11 11 11.9 11 13v.8l-4 22.2h6l1.2-6.5H21c5.8 0 10.5-4.2 11.2-10C33 14.5 29.5 11 25 11zm.2 9.8c-.5 3-3.2 5.2-6.2 5.2H15l1.8-10h4c2.6 0 4.8 2 4.4 4.8z" fill="#003087"/>
  <!-- Secondary P shape light blue -->
  <path d="M35.5 17.5c0 .3-.1.6-.1.9C34.7 24.7 29.5 29 23.2 29h-3.7l-2.2 11.5h6l1.2-6.5h6.8c5.8 0 10.5-4.2 11.2-10 .5-4-1.8-6.5-6.5-6.5h-.5z" fill="#009CDE"/>
  <!-- PayPal wordmark -->
  <text x="58" y="26" font-family="'Helvetica Neue', Arial, sans-serif" font-size="14" font-weight="800" fill="#003087" letter-spacing="-0.2">Pay</text>
  <text x="58" y="42" font-family="'Helvetica Neue', Arial, sans-serif" font-size="14" font-weight="800" fill="#009CDE" letter-spacing="-0.2">Pal</text>
</svg>

