<svg xmlns="http://www.w3.org/2000/svg" viewBox="0 0 60 25" width="60" height="25">
  <path fill="#635BFF" d="M59.64 14.28h-8.06c.19 1.93 1.6 2.55 3.2 2.55 1.64 0 2.96-.37 4.05-.95v3.32a8.33 8.33 0 0 1-4.56 1.1c-4.01 0-6.83-2.5-6.83-7.48 0-4.19 2.39-7.52 6.3-7.52 3.92 0 5.96 3.28 5.96 7.5 0 .4-.04 1.26-.06 1.48zm-5.92-5.62c-1.03 0-2.17.73-2.17 2.58h4.23c0-1.85-1.07-2.58-2.06-2.58zM40.3 18.32c1.48 0 2.46-.53 2.46-1.56 0-1.12-1.1-1.46-2.35-1.86-1.78-.57-4.08-1.29-4.08-4.03 0-2.96 2.35-4.88 5.78-4.88 1.6 0 3.06.4 4.16 1.03v3.72c-1-.72-2.27-1.2-3.56-1.2-1.28 0-2.09.53-2.09 1.38 0 1.01 1.05 1.32 2.29 1.72 1.8.58 4.17 1.35 4.17 4.21 0 3.13-2.53 4.98-6.05 4.98-1.77 0-3.48-.5-4.7-1.27v-3.82c1.15.9 2.79 1.58 4 1.58zM31.24 7.32l-1.82 9.63-2.07-9.63H23.2l-2.07 9.63-1.82-9.63H15.2l3.57 14.96h4.48l2.1-9.88 2.1 9.88h4.47l3.57-14.96h-4.25zM8.5 12.27c0-1.4 1.19-1.95 3.07-1.95 1.78 0 3.56.48 5.12 1.31V7.84c-1.67-.6-3.33-.9-4.99-.9C7.65 6.94 4.6 9.04 4.6 12.5c0 5.42 7.17 4.55 7.17 6.9 0 1.66-1.43 2.19-3.44 2.19-1.99 0-3.97-.64-5.73-1.7v3.88a14.09 14.09 0 0 0 5.65 1.18c4.3 0 7.44-2.04 7.44-5.59 0-5.73-7.19-4.72-7.19-7.09z"/>
</svg>
